<svg width="33" height="33" viewBox="0 0 33 33" fill="none" xmlns="http://www.w3.org/2000/svg">
<g clip-path="url(#clip0_1545_14705)">
<path d="M28.4335 12.4931C29.3126 13.2797 30.0529 14.0432 30.6082 14.6447C30.9919 15.0698 31.2042 15.6221 31.2042 16.1947C31.2042 16.7674 30.9919 17.3197 30.6082 17.7448C28.179 20.3591 22.6496 25.4489 16.1949 25.4489H15.2694" stroke="#000001" stroke-width="2.31353" stroke-linecap="round" stroke-linejoin="round"/>
<path d="M8.95347 23.4361C6.27355 21.9352 3.85207 20.0136 1.78151 17.7448C1.39784 17.3197 1.18546 16.7674 1.18546 16.1948C1.18546 15.6221 1.39784 15.0698 1.78151 14.6447C4.21072 12.0304 9.74007 6.94061 16.1948 6.94061C18.7392 6.99379 21.2293 7.68594 23.4362 8.95339" stroke="#000001" stroke-width="2.31353" stroke-linecap="round" stroke-linejoin="round"/>
<path d="M28.9192 3.47031L3.47031 28.9192" stroke="#000001" stroke-width="2.31353" stroke-linecap="round" stroke-linejoin="round"/>
<path d="M12.9327 19.4568C12.0637 18.5931 11.5729 17.4199 11.5677 16.1948C11.5677 14.9676 12.0552 13.7907 12.9229 12.9229C13.7907 12.0552 14.9676 11.5677 16.1948 11.5677C17.42 11.5728 18.5931 12.0637 19.4568 12.9327" stroke="#000001" stroke-width="2.31353" stroke-linecap="round" stroke-linejoin="round"/>
<path d="M20.2203 18.5083C19.8085 19.2123 19.2179 19.7949 18.5083 20.1972" stroke="#000001" stroke-width="2.31353" stroke-linecap="round" stroke-linejoin="round"/>
</g>
<defs>
<clipPath id="clip0_1545_14705">
<rect width="32.3895" height="32.3895" fill="white"/>
</clipPath>
</defs>
</svg>
