<svg width="33" height="33" viewBox="0 0 33 33" fill="none" xmlns="http://www.w3.org/2000/svg">
<g clip-path="url(#clip0_1545_14701)">
<path d="M30.6081 14.6447C30.9918 15.0698 31.2042 15.6221 31.2042 16.1947C31.2042 16.7674 30.9918 17.3197 30.6081 17.7448C28.1789 20.3591 22.6496 25.4489 16.1948 25.4489C9.74004 25.4489 4.21069 20.3591 1.78148 17.7448C1.3978 17.3197 1.18542 16.7674 1.18542 16.1947C1.18542 15.6221 1.3978 15.0698 1.78148 14.6447C4.21069 12.0304 9.74004 6.9406 16.1948 6.9406C22.6496 6.9406 28.1789 12.0304 30.6081 14.6447Z" stroke="#000001" stroke-width="2.31353" stroke-linecap="round" stroke-linejoin="round"/>
<path d="M16.1948 20.8218C18.7502 20.8218 20.8218 18.7502 20.8218 16.1947C20.8218 13.6393 18.7502 11.5677 16.1948 11.5677C13.6393 11.5677 11.5677 13.6393 11.5677 16.1947C11.5677 18.7502 13.6393 20.8218 16.1948 20.8218Z" stroke="#000001" stroke-width="2.31353" stroke-linecap="round" stroke-linejoin="round"/>
</g>
<defs>
<clipPath id="clip0_1545_14701">
<rect width="32.3895" height="32.3895" fill="white"/>
</clipPath>
</defs>
</svg>
